<?xml version="1.0" standalone="no"?>
<!DOCTYPE svg PUBLIC "-//W3C//DTD SVG 20010904//EN"
 "http://www.w3.org/TR/2001/REC-SVG-20010904/DTD/svg10.dtd">
<svg version="1.0" xmlns="http://www.w3.org/2000/svg"
 width="1316.000000pt" height="807.000000pt" viewBox="0 0 1316.000000 807.000000"
 preserveAspectRatio="xMidYMid meet">
<metadata>
Created by potrace 1.16, written by Peter Selinger 2001-2019
</metadata>
<g transform="translate(0.000000,807.000000) scale(0.100000,-0.100000)"
fill="#000000" stroke="none">
<path d="M8437 7259 c-104 -25 -212 -112 -300 -244 -53 -78 -55 -90 -28 -107
15 -9 17 -15 9 -25 -7 -9 -7 -17 2 -28 7 -8 10 -21 7 -29 -4 -9 1 -17 12 -21
13 -4 17 -12 13 -27 -4 -19 -1 -20 31 -16 35 4 37 2 51 -39 14 -40 13 -42 -5
-48 -27 -9 -66 -64 -84 -116 -38 -115 -144 -875 -150 -1071 l-3 -127 -37 -32
c-51 -45 -65 -78 -65 -153 0 -60 36 -271 59 -353 l10 -33 -2460 0 -2459 0 0
-1825 0 -1825 3060 0 3060 0 1 1648 1 1647 33 -210 c120 -744 196 -1126 245
-1238 45 -101 90 -370 165 -992 40 -328 39 -325 22 -325 -6 0 -53 -51 -102
-112 -49 -62 -132 -156 -185 -208 -138 -138 -173 -225 -113 -284 44 -44 119
-60 283 -61 167 0 213 14 240 72 15 32 16 33 85 33 75 0 132 21 228 82 37 23
47 36 47 57 0 14 -24 91 -52 171 l-52 145 -3 1015 -3 1015 49 185 c87 324 133
559 153 781 l11 126 27 -14 c35 -17 69 -5 100 34 19 24 21 37 18 94 -3 55 -12
84 -52 164 l-48 96 18 207 c11 122 18 306 19 447 0 236 0 241 -25 290 -14 28
-25 57 -26 66 -1 9 -34 58 -75 110 -286 365 -495 586 -605 640 -110 53 -244
25 -367 -77 -16 -13 -36 -24 -45 -24 -8 0 -35 -10 -60 -21 -40 -20 -46 -20
-80 -7 -61 24 -122 67 -122 86 0 86 -114 334 -189 411 -69 71 -159 95 -264 70z
m99 -749 c29 0 64 4 79 10 24 9 34 3 123 -77 53 -48 100 -92 104 -98 4 -5 8
-26 8 -45 0 -31 -7 -41 -56 -80 -81 -65 -192 -185 -200 -217 -4 -16 -63 -92
-131 -170 -89 -102 -123 -148 -123 -167 0 -21 -5 -26 -23 -26 l-24 0 -13 329
-13 329 36 50 c40 54 87 148 87 174 0 15 4 15 47 2 25 -8 70 -14 99 -14z m183
-1021 c15 -49 88 -131 176 -197 33 -25 51 -42 40 -38 -79 29 -344 95 -475 120
l-75 13 55 26 c128 59 255 116 261 116 3 1 11 -18 18 -40z m-909 -2045 c69
-16 149 -27 234 -31 l128 -6 19 -31 c56 -93 17 -209 -86 -257 -38 -18 -116
-19 -2000 -19 -1880 0 -1962 1 -2000 19 -104 47 -143 172 -81 263 29 43 68 70
113 78 21 4 832 8 1803 9 l1765 1 105 -26z m333 -727 c62 -47 89 -125 67 -193
-17 -51 -75 -112 -118 -124 -25 -6 -701 -10 -1992 -10 -1875 0 -1957 1 -1995
19 -117 53 -149 211 -59 293 57 51 -80 48 2070 45 l1991 -2 36 -28z m0 -710
c89 -68 99 -179 24 -264 -57 -65 -37 -63 -687 -63 -637 0 -631 0 -688 53 -88
82 -69 231 36 287 36 19 59 19 658 17 l621 -2 36 -28z"/>
</g>
</svg>
